<?xml version="1.0" encoding="utf-8" ?>
<svg baseProfile="tiny" height="100%" version="1.2" width="100%" xmlns="http://www.w3.org/2000/svg" xmlns:ev="http://www.w3.org/2001/xml-events" xmlns:xlink="http://www.w3.org/1999/xlink"><defs /><path d="M 339,10 338,11 328,11 327,12 319,12 318,13 312,13 311,14 306,14 305,15 300,15 299,16 293,16 292,17 290,17 289,18 285,18 284,19 279,19 278,20 276,20 275,21 272,21 271,22 267,22 266,23 264,23 263,24 260,24 259,25 258,25 257,26 256,26 255,25 253,27 251,27 250,28 248,28 247,29 245,29 244,30 242,30 241,31 238,31 237,32 236,32 235,33 234,33 233,34 231,34 230,35 229,35 228,36 227,36 226,37 224,37 223,38 222,38 221,39 220,39 219,40 217,40 216,41 215,41 214,42 213,42 212,43 211,43 210,44 209,44 208,45 207,45 206,46 205,46 204,47 203,47 201,49 200,49 199,50 198,50 197,51 196,51 193,54 192,54 191,55 190,55 188,57 187,57 185,59 184,59 184,60 183,61 182,61 179,64 178,64 162,80 162,81 160,83 160,84 156,88 156,89 154,91 154,92 152,94 152,95 151,96 151,97 150,98 150,99 148,101 148,102 147,103 147,104 146,105 146,106 144,108 144,110 142,112 142,114 141,115 141,116 140,117 140,119 139,120 139,121 138,122 138,124 136,126 136,128 135,129 135,130 134,131 134,133 133,134 133,135 132,136 132,137 131,138 131,139 130,140 130,141 129,142 129,143 128,144 128,145 127,146 127,147 126,148 126,149 123,152 123,153 121,155 121,156 109,168 108,168 105,171 104,171 101,174 100,174 99,175 98,175 97,176 96,176 94,178 93,178 92,179 91,179 90,180 88,180 86,182 84,182 83,183 82,183 81,184 80,184 79,185 78,185 77,186 75,186 74,187 73,187 72,188 70,188 69,189 68,189 67,190 66,190 65,191 64,191 63,192 62,192 61,193 60,193 59,194 58,194 57,195 56,195 55,196 54,196 52,198 51,198 50,199 48,199 45,202 44,202 42,204 41,204 39,206 38,206 36,208 35,208 31,212 30,212 16,226 16,227 12,231 12,232 11,233 11,234 10,235 10,236 8,238 8,239 7,240 7,242 6,243 6,244 5,245 5,247 4,248 4,250 3,251 3,254 2,255 3,256 3,257 2,258 2,270 3,271 3,275 4,276 4,279 5,280 5,282 6,283 6,285 7,286 7,287 8,288 8,290 9,291 9,292 10,293 10,294 12,296 12,298 14,300 14,301 15,302 15,303 17,305 17,306 20,309 20,310 34,324 35,324 39,328 40,328 42,330 43,330 45,332 46,332 48,334 49,334 51,336 52,336 53,337 54,337 56,339 58,339 59,340 60,340 61,341 62,341 63,342 64,342 65,343 67,343 68,344 69,344 70,345 72,345 73,346 75,346 76,347 79,347 80,348 83,348 84,349 86,349 87,350 90,350 91,351 94,351 95,352 99,352 100,353 105,353 106,354 109,354 110,355 115,355 116,356 122,356 123,357 127,357 128,358 132,358 133,359 139,359 140,360 146,360 147,361 152,361 153,362 159,362 160,363 164,363 165,364 170,364 171,365 175,365 176,366 182,366 183,367 187,367 188,368 193,368 194,369 197,369 198,370 202,370 203,371 207,371 208,372 210,372 211,373 214,373 215,374 219,374 220,375 223,375 224,376 227,376 228,377 231,377 232,378 235,378 236,379 239,379 240,380 244,380 245,381 247,381 248,382 251,382 252,383 255,383 256,384 260,384 261,385 265,385 266,386 271,386 272,387 275,387 276,388 279,388 280,389 285,389 286,390 291,390 292,391 298,391 299,392 306,392 307,393 312,393 313,394 326,394 327,395 340,395 341,396 378,396 379,395 391,395 392,394 404,394 405,393 412,393 413,392 419,392 420,391 428,391 429,390 433,390 434,389 439,389 440,388 443,388 444,387 448,387 449,386 452,386 453,385 456,385 457,384 459,384 460,383 463,383 464,382 466,382 467,381 469,381 470,380 471,380 472,379 474,379 475,378 476,378 477,377 479,377 480,376 482,376 483,375 484,375 485,374 486,374 488,372 490,372 491,371 492,371 494,369 495,369 496,368 497,368 498,367 499,367 501,365 502,365 504,363 505,363 507,361 508,361 510,359 511,359 514,356 515,356 524,347 525,347 525,346 526,345 527,345 527,344 533,338 533,337 537,333 537,332 539,330 539,329 541,327 541,326 543,324 543,323 544,322 544,321 546,319 546,317 548,315 548,314 549,313 549,311 551,309 551,307 552,306 552,305 553,304 553,303 554,302 554,300 555,299 555,297 556,296 556,294 557,293 557,290 558,289 558,288 559,287 559,284 560,283 560,279 561,278 561,274 562,273 562,269 563,268 563,256 564,255 564,224 563,223 563,212 562,211 562,206 561,205 561,200 560,199 560,195 559,194 559,189 558,188 558,186 557,185 557,181 556,180 556,178 555,177 555,174 554,173 554,171 553,170 553,167 552,166 552,164 551,163 551,160 550,159 550,158 549,157 549,155 548,154 548,152 547,151 547,150 546,149 546,147 545,146 545,144 544,143 544,142 543,141 543,140 542,139 542,138 541,137 541,136 540,135 540,133 539,132 539,131 538,130 538,128 536,126 536,125 535,124 535,122 534,121 534,120 532,118 532,117 531,116 531,115 530,114 530,113 528,111 528,110 527,109 527,108 525,106 525,104 523,102 523,101 522,100 522,99 520,97 520,96 517,93 517,92 516,91 516,90 513,87 513,86 511,84 511,83 509,81 509,80 504,75 504,74 503,73 503,72 502,72 500,70 500,69 496,65 496,64 495,63 494,63 493,62 493,61 479,47 478,47 474,43 473,43 471,41 470,41 469,40 469,39 468,39 465,36 464,36 463,35 462,35 460,33 459,33 458,32 457,32 455,30 454,30 453,29 452,29 451,28 450,28 449,27 448,27 447,26 445,26 443,24 441,24 440,23 438,23 437,22 436,22 435,21 433,21 432,20 430,20 429,19 426,19 425,18 422,18 421,17 420,17 419,16 415,16 414,15 410,15 409,14 404,14 403,13 397,13 396,12 388,12 387,11 380,11 379,10 Z" fill="black" stroke="black" stroke-width="2" /><path d="M 366,309 367,308 368,309 367,310 Z" fill="white" stroke="black" stroke-width="2" /><path d="M 353,309 354,308 355,309 354,310 Z" fill="white" stroke="black" stroke-width="2" /><path d="M 339,309 340,308 341,308 342,309 341,310 340,310 Z" fill="white" stroke="black" stroke-width="2" /><path d="M 256,309 257,308 258,308 259,309 258,310 257,310 Z" fill="white" stroke="black" stroke-width="2" /><path d="M 211,309 212,308 213,308 214,309 213,310 212,310 Z" fill="white" stroke="black" stroke-width="2" /><path d="M 205,309 206,308 207,308 208,309 207,310 206,310 Z" fill="white" stroke="black" stroke-width="2" /><path d="M 175,309 176,308 177,309 176,310 Z" fill="white" stroke="black" stroke-width="2" /><path d="M 88,307 89,306 90,306 91,307 90,308 89,308 Z" fill="white" stroke="black" stroke-width="2" /><path d="M 395,304 396,303 397,304 396,305 Z" fill="white" stroke="black" stroke-width="2" /><path d="M 392,304 393,303 394,304 393,305 Z" fill="white" stroke="black" stroke-width="2" /><path d="M 310,302 311,301 312,302 311,303 Z" fill="white" stroke="black" stroke-width="2" /><path d="M 308,302 309,301 310,302 309,303 Z" fill="white" stroke="black" stroke-width="2" /><path d="M 304,302 305,301 306,302 305,303 Z" fill="white" stroke="black" stroke-width="2" /><path d="M 171,302 172,301 173,301 174,302 173,303 172,303 Z" fill="white" stroke="black" stroke-width="2" /><path d="M 123,302 124,301 125,302 124,303 Z" fill="white" stroke="black" stroke-width="2" /><path d="M 120,302 121,301 122,302 121,303 Z" fill="white" stroke="black" stroke-width="2" /><path d="M 366,301 367,300 368,301 367,302 Z" fill="white" stroke="black" stroke-width="2" /><path d="M 305,301 306,300 307,300 308,301 307,302 306,302 Z" fill="white" stroke="black" stroke-width="2" /><path d="M 94,301 95,300 96,301 95,302 Z" fill="white" stroke="black" stroke-width="2" /><path d="M 339,300 340,299 341,299 342,300 341,301 340,301 Z" fill="white" stroke="black" stroke-width="2" /><path d="M 308,300 309,299 310,299 311,300 310,301 309,301 Z" fill="white" stroke="black" stroke-width="2" /><path d="M 258,300 259,299 260,300 259,301 Z" fill="white" stroke="black" stroke-width="2" /><path d="M 173,300 174,299 175,300 174,301 Z" fill="white" stroke="black" stroke-width="2" /><path d="M 124,300 125,299 126,300 125,301 Z" fill="white" stroke="black" stroke-width="2" /><path d="M 121,300 122,299 123,299 124,300 123,301 122,301 Z" fill="white" stroke="black" stroke-width="2" /><path d="M 179,299 180,298 181,299 180,300 Z" fill="white" stroke="black" stroke-width="2" /><path d="M 123,299 124,298 125,299 124,300 Z" fill="white" stroke="black" stroke-width="2" /><path d="M 121,298 122,297 123,298 122,299 Z" fill="white" stroke="black" stroke-width="2" /><path d="M 181,297 182,296 183,297 182,298 Z" fill="white" stroke="black" stroke-width="2" /><path d="M 177,297 178,296 179,297 178,298 Z" fill="white" stroke="black" stroke-width="2" /><path d="M 118,297 119,296 120,297 119,298 Z" fill="white" stroke="black" stroke-width="2" /><path d="M 179,296 180,295 181,296 180,297 Z" fill="white" stroke="black" stroke-width="2" /><path d="M 179,294 180,293 181,294 180,295 Z" fill="white" stroke="black" stroke-width="2" /><path d="M 326,293 327,292 328,293 327,294 Z" fill="white" stroke="black" stroke-width="2" /><path d="M 180,293 181,292 182,293 181,294 Z" fill="white" stroke="black" stroke-width="2" /><path d="M 103,293 104,292 105,293 104,294 Z" fill="white" stroke="black" stroke-width="2" /><path d="M 181,292 182,291 183,292 182,293 Z" fill="white" stroke="black" stroke-width="2" /><path d="M 331,287 332,286 333,287 332,288 Z" fill="white" stroke="black" stroke-width="2" /><path d="M 330,286 331,285 332,286 331,287 Z" fill="white" stroke="black" stroke-width="2" /><path d="M 334,280 335,279 336,280 335,281 Z" fill="white" stroke="black" stroke-width="2" /><path d="M 91,278 92,277 93,278 92,279 Z" fill="white" stroke="black" stroke-width="2" /><path d="M 195,264 196,263 197,264 196,265 Z" fill="white" stroke="black" stroke-width="2" /><path d="M 347,263 348,262 349,263 348,264 Z" fill="white" stroke="black" stroke-width="2" /><path d="M 220,247 221,246 270,246 273,249 273,255 271,257 271,258 270,259 256,259 255,258 246,258 245,259 240,259 239,258 236,258 235,259 234,259 230,255 229,255 222,248 221,248 Z" fill="white" stroke="black" stroke-width="2" /><path d="M 108,247 109,246 113,246 115,248 115,249 116,250 116,251 115,252 115,256 112,259 111,259 110,258 109,258 108,257 108,254 109,253 109,251 108,250 Z" fill="white" stroke="black" stroke-width="2" /><path d="M 100,246 101,246 104,249 104,256 102,258 101,258 100,259 99,258 99,257 97,255 97,250 98,249 98,248 Z" fill="white" stroke="black" stroke-width="2" /><path d="M 350,243 351,242 352,243 351,244 Z" fill="white" stroke="black" stroke-width="2" /><path d="M 347,242 348,241 349,241 350,242 349,243 348,243 Z" fill="white" stroke="black" stroke-width="2" /><path d="M 344,241 345,240 346,241 345,242 Z" fill="white" stroke="black" stroke-width="2" /><path d="M 342,241 343,240 344,241 343,242 Z" fill="white" stroke="black" stroke-width="2" /><path d="M 214,241 215,240 216,241 215,242 Z" fill="white" stroke="black" stroke-width="2" /><path d="M 346,240 347,239 348,240 347,241 Z" fill="white" stroke="black" stroke-width="2" /><path d="M 89,229 90,228 91,229 91,230 90,231 89,230 Z" fill="white" stroke="black" stroke-width="2" /><path d="M 333,224 334,223 335,224 334,225 Z" fill="white" stroke="black" stroke-width="2" /><path d="M 333,222 334,221 335,222 334,223 Z" fill="white" stroke="black" stroke-width="2" /><path d="M 95,221 96,220 97,221 96,222 Z" fill="white" stroke="black" stroke-width="2" /><path d="M 245,220 246,219 247,220 246,221 Z" fill="white" stroke="black" stroke-width="2" /><path d="M 331,218 332,217 333,218 332,219 Z" fill="white" stroke="black" stroke-width="2" /><path d="M 329,218 330,217 331,218 330,219 Z" fill="white" stroke="black" stroke-width="2" /><path d="M 332,217 333,216 334,217 333,218 Z" fill="white" stroke="black" stroke-width="2" /><path d="M 333,216 334,215 335,216 334,217 Z" fill="white" stroke="black" stroke-width="2" /><path d="M 330,216 331,215 332,216 331,217 Z" fill="white" stroke="black" stroke-width="2" /><path d="M 96,216 97,215 98,216 97,217 Z" fill="white" stroke="black" stroke-width="2" /><path d="M 129,215 130,214 134,214 135,215 139,215 140,216 141,216 144,219 145,219 146,220 146,221 150,225 150,226 151,227 151,228 152,229 152,231 153,232 153,233 154,234 154,236 155,237 155,241 156,242 156,249 157,250 157,251 156,252 156,253 157,254 157,255 156,256 156,263 155,264 155,268 154,269 154,271 153,272 153,273 152,274 152,276 150,278 150,279 149,280 149,281 141,289 140,289 139,290 136,290 135,291 134,291 133,290 130,290 129,289 131,287 131,286 134,283 134,282 136,280 136,278 137,277 137,276 138,275 138,274 139,273 139,270 140,269 140,266 141,265 141,262 142,261 142,244 141,243 141,240 140,239 140,235 139,234 139,233 138,232 138,230 137,229 137,227 135,225 135,224 134,223 134,222 131,219 131,218 129,216 Z" fill="white" stroke="black" stroke-width="2" /><path d="M 112,215 113,214 114,214 115,215 116,215 117,214 118,215 121,215 125,219 126,219 127,220 127,221 131,225 131,226 132,227 132,228 133,229 133,230 134,231 134,233 135,234 135,236 136,237 136,241 137,242 137,249 138,250 138,259 137,260 137,263 136,264 136,268 135,269 135,271 134,272 134,274 133,275 133,276 132,277 132,278 131,279 131,280 122,289 120,289 119,290 117,290 116,291 115,291 114,290 110,290 109,289 108,289 100,281 100,280 98,278 98,276 97,275 97,274 96,273 96,271 95,270 95,269 94,268 94,262 93,261 93,260 94,259 97,262 98,262 99,263 114,263 115,262 116,262 118,260 118,259 119,258 119,255 120,254 120,249 119,248 119,247 118,246 118,245 117,244 117,243 116,243 115,242 98,242 97,243 96,243 96,244 94,246 93,245 93,243 94,242 94,238 95,237 95,234 96,233 96,232 97,231 97,230 98,229 98,228 99,227 99,226 100,225 100,224 102,222 102,221 104,219 105,219 108,216 109,216 110,215 Z" fill="white" stroke="black" stroke-width="2" /><path d="M 325,213 326,212 327,213 326,214 Z" fill="white" stroke="black" stroke-width="2" /><path d="M 249,213 250,212 251,213 250,214 Z" fill="white" stroke="black" stroke-width="2" /><path d="M 250,211 251,210 252,211 251,212 Z" fill="white" stroke="black" stroke-width="2" /><path d="M 108,210 109,209 110,210 109,211 Z" fill="white" stroke="black" stroke-width="2" /><path d="M 252,209 253,208 254,209 253,210 Z" fill="white" stroke="black" stroke-width="2" /><path d="M 110,209 111,208 112,209 111,210 Z" fill="white" stroke="black" stroke-width="2" /><path d="M 106,209 107,208 108,209 107,210 Z" fill="white" stroke="black" stroke-width="2" /><path d="M 181,208 182,207 183,208 182,209 Z" fill="white" stroke="black" stroke-width="2" /><path d="M 120,208 121,207 122,208 121,209 Z" fill="white" stroke="black" stroke-width="2" /><path d="M 266,207 267,206 277,206 278,207 279,207 280,208 281,208 282,209 283,209 289,215 289,216 291,218 291,219 292,220 292,221 294,223 294,225 295,226 295,227 296,228 296,230 297,231 297,233 298,234 298,238 299,239 299,245 300,246 300,260 299,261 299,267 298,268 298,270 297,271 297,273 296,274 296,277 295,278 295,279 294,280 294,281 293,282 293,283 292,284 292,285 291,286 291,287 288,290 288,291 287,292 286,292 282,296 281,296 280,297 278,297 277,298 276,298 275,299 270,299 269,298 266,298 265,297 264,297 262,295 261,295 254,288 254,287 252,285 252,284 251,283 251,282 250,281 250,280 249,279 249,277 248,276 248,273 247,272 247,271 246,270 246,267 245,266 245,264 246,263 271,263 272,262 273,262 275,260 275,259 276,258 276,257 277,256 277,248 276,247 276,246 275,245 275,244 273,242 247,242 246,241 246,234 247,233 247,232 248,231 248,228 249,227 249,226 250,225 250,223 251,222 251,221 252,220 252,219 253,218 254,218 254,217 255,216 255,215 257,213 258,213 258,212 261,209 262,209 264,207 Z" fill="white" stroke="black" stroke-width="2" /><path d="M 154,207 155,206 165,206 166,207 168,207 171,210 172,210 179,217 179,218 181,220 181,222 182,223 182,225 184,227 184,229 185,230 185,231 186,232 186,235 187,236 187,242 188,243 188,264 187,265 187,269 186,270 186,272 185,273 185,275 184,276 184,279 182,281 182,282 181,283 181,285 178,288 178,289 172,295 171,295 169,297 168,297 167,298 166,298 165,299 155,299 154,298 158,294 158,293 162,289 162,288 163,287 163,285 165,283 165,281 166,280 166,278 167,277 167,276 168,275 168,271 169,270 169,267 170,266 170,261 171,260 171,244 170,243 170,237 169,236 169,233 168,232 168,229 167,228 167,227 166,226 166,225 165,224 165,222 164,221 164,220 162,218 162,217 160,215 160,214 159,213 159,212 Z" fill="white" stroke="black" stroke-width="2" /><path d="M 287,206 288,205 289,206 298,206 299,207 301,207 302,208 303,208 307,212 308,212 309,213 309,214 312,217 312,218 314,220 314,221 315,222 315,223 316,224 316,225 317,226 317,228 318,229 318,230 319,231 319,234 320,235 320,240 321,241 321,255 322,256 322,258 321,259 321,265 320,266 320,269 319,270 319,273 318,274 318,276 317,277 317,279 316,280 316,281 314,283 314,284 313,285 313,286 311,288 311,289 304,296 303,296 302,297 301,297 300,298 297,298 296,299 288,299 287,298 292,293 292,292 295,289 295,288 296,287 296,285 298,283 298,282 299,281 299,280 300,279 300,276 301,275 301,272 302,271 302,269 303,268 303,262 304,261 304,245 303,244 303,237 302,236 302,232 301,231 301,229 300,228 300,227 299,226 299,224 298,223 298,222 297,221 297,220 296,219 296,218 295,217 295,216 293,214 293,213 289,209 289,208 288,208 287,207 Z" fill="white" stroke="black" stroke-width="2" /><path d="M 256,204 257,203 258,204 257,205 Z" fill="white" stroke="black" stroke-width="2" /><path d="M 173,204 174,203 175,204 174,205 Z" fill="white" stroke="black" stroke-width="2" /><path d="M 172,203 173,202 174,203 173,204 Z" fill="white" stroke="black" stroke-width="2" /><path d="M 126,203 127,202 128,203 127,204 Z" fill="white" stroke="black" stroke-width="2" /><path d="M 262,202 263,201 264,202 263,203 Z" fill="white" stroke="black" stroke-width="2" /><path d="M 256,202 257,201 258,202 257,203 Z" fill="white" stroke="black" stroke-width="2" /><path d="M 168,202 169,201 170,201 171,202 170,203 169,203 Z" fill="white" stroke="black" stroke-width="2" /><path d="M 255,201 256,200 257,201 256,202 Z" fill="white" stroke="black" stroke-width="2" /><path d="M 166,201 167,200 168,201 167,202 Z" fill="white" stroke="black" stroke-width="2" /><path d="M 283,200 284,199 285,200 284,201 Z" fill="white" stroke="black" stroke-width="2" /><path d="M 170,200 171,199 172,200 171,201 Z" fill="white" stroke="black" stroke-width="2" /><path d="M 532,175 533,174 534,174 535,175 534,176 533,176 Z" fill="white" stroke="black" stroke-width="2" /><path d="M 470,175 471,174 472,175 471,176 Z" fill="white" stroke="black" stroke-width="2" /><path d="M 531,174 532,173 533,174 532,175 Z" fill="white" stroke="black" stroke-width="2" /><path d="M 534,173 535,172 536,173 535,174 Z" fill="white" stroke="black" stroke-width="2" /><path d="M 532,172 533,171 534,172 533,173 Z" fill="white" stroke="black" stroke-width="2" /><path d="M 273,172 274,171 275,172 274,173 Z" fill="white" stroke="black" stroke-width="2" /><path d="M 271,171 272,170 273,171 272,172 Z" fill="white" stroke="black" stroke-width="2" /><path d="M 274,170 275,169 276,170 275,171 Z" fill="white" stroke="black" stroke-width="2" /><path d="M 476,169 477,168 478,169 477,170 Z" fill="white" stroke="black" stroke-width="2" /><path d="M 272,169 273,168 274,169 273,170 Z" fill="white" stroke="black" stroke-width="2" /><path d="M 531,168 532,167 533,168 532,169 Z" fill="white" stroke="black" stroke-width="2" /><path d="M 482,168 483,167 484,168 483,169 Z" fill="white" stroke="black" stroke-width="2" /><path d="M 420,168 421,167 423,169 422,170 421,170 420,169 Z" fill="white" stroke="black" stroke-width="2" /><path d="M 274,168 275,167 276,168 275,169 Z" fill="white" stroke="black" stroke-width="2" /><path d="M 346,167 347,166 348,167 347,168 Z" fill="white" stroke="black" stroke-width="2" /><path d="M 478,166 479,165 481,167 480,168 479,168 478,167 Z" fill="white" stroke="black" stroke-width="2" /><path d="M 348,166 349,165 350,166 349,167 Z" fill="white" stroke="black" stroke-width="2" /><path d="M 345,166 346,165 347,166 346,167 Z" fill="white" stroke="black" stroke-width="2" /><path d="M 480,164 481,163 482,164 481,165 Z" fill="white" stroke="black" stroke-width="2" /><path d="M 416,164 417,163 418,164 417,165 Z" fill="white" stroke="black" stroke-width="2" /><path d="M 349,161 350,160 351,161 350,162 Z" fill="white" stroke="black" stroke-width="2" /><path d="M 280,161 281,160 282,161 281,162 Z" fill="white" stroke="black" stroke-width="2" /><path d="M 355,159 356,158 357,159 356,160 Z" fill="white" stroke="black" stroke-width="2" /><path d="M 485,158 486,157 487,158 486,159 Z" fill="white" stroke="black" stroke-width="2" /><path d="M 352,155 353,154 354,155 353,156 Z" fill="white" stroke="black" stroke-width="2" /><path d="M 486,153 487,152 488,153 487,154 Z" fill="white" stroke="black" stroke-width="2" /><path d="M 488,147 489,146 490,147 489,148 Z" fill="white" stroke="black" stroke-width="2" /><path d="M 491,146 492,145 493,146 492,147 Z" fill="white" stroke="black" stroke-width="2" /><path d="M 356,143 357,142 358,143 357,144 Z" fill="white" stroke="black" stroke-width="2" /><path d="M 493,139 494,138 495,139 495,140 494,141 493,140 Z" fill="white" stroke="black" stroke-width="2" /><path d="M 497,135 498,134 499,135 498,136 Z" fill="white" stroke="black" stroke-width="2" /><path d="M 495,134 496,133 497,134 496,135 Z" fill="white" stroke="black" stroke-width="2" /><path d="M 501,132 502,131 503,132 502,133 Z" fill="white" stroke="black" stroke-width="2" /><path d="M 387,118 388,117 436,117 439,120 439,126 438,127 438,128 437,129 435,129 434,130 429,130 428,129 422,129 421,130 420,130 419,129 416,129 415,130 414,130 413,129 410,129 409,130 408,130 407,129 399,129 394,124 393,124 Z" fill="white" stroke="black" stroke-width="2" /><path d="M 357,101 358,100 359,101 358,102 Z" fill="white" stroke="black" stroke-width="2" /><path d="M 357,96 358,95 359,96 358,97 Z" fill="white" stroke="black" stroke-width="2" /><path d="M 352,92 353,91 354,92 353,93 Z" fill="white" stroke="black" stroke-width="2" /><path d="M 279,89 280,88 281,89 280,90 Z" fill="white" stroke="black" stroke-width="2" /><path d="M 484,88 485,87 486,88 485,89 Z" fill="white" stroke="black" stroke-width="2" /><path d="M 483,87 484,86 485,87 484,88 Z" fill="white" stroke="black" stroke-width="2" /><path d="M 482,85 483,84 484,85 483,86 Z" fill="white" stroke="black" stroke-width="2" /><path d="M 480,82 481,81 482,82 481,83 Z" fill="white" stroke="black" stroke-width="2" /><path d="M 346,82 347,81 348,82 347,83 Z" fill="white" stroke="black" stroke-width="2" /><path d="M 347,81 348,80 349,81 348,82 Z" fill="white" stroke="black" stroke-width="2" /><path d="M 481,80 482,79 483,80 482,81 Z" fill="white" stroke="black" stroke-width="2" /><path d="M 348,80 349,79 350,80 349,81 Z" fill="white" stroke="black" stroke-width="2" /><path d="M 342,78 343,77 344,78 343,79 Z" fill="white" stroke="black" stroke-width="2" /><path d="M 287,78 288,77 289,78 288,79 Z" fill="white" stroke="black" stroke-width="2" /><path d="M 475,77 476,76 477,77 476,78 Z" fill="white" stroke="black" stroke-width="2" /><path d="M 435,77 436,76 437,76 438,77 439,77 440,76 446,76 447,77 448,77 449,76 455,76 456,77 458,77 459,76 462,76 463,77 465,77 466,78 468,78 472,82 473,82 477,86 477,87 480,90 480,91 481,92 481,94 482,95 482,96 483,97 483,98 484,99 484,101 485,102 485,104 486,105 486,110 487,111 487,120 488,121 488,125 487,126 487,135 486,136 486,141 485,142 485,144 484,145 484,147 483,148 483,149 482,150 482,152 481,153 481,154 479,156 479,157 477,159 477,160 471,166 470,166 468,168 467,168 466,169 464,169 463,170 453,170 452,169 454,167 455,167 459,163 459,162 460,161 460,160 462,158 462,157 463,156 463,155 464,154 464,153 465,152 465,151 466,150 466,148 467,147 467,144 468,143 468,141 469,140 469,135 470,134 470,114 469,113 469,107 468,106 468,103 467,102 467,100 466,99 466,97 465,96 465,94 464,93 464,92 463,91 463,90 462,89 462,88 460,86 459,86 458,87 458,91 460,93 460,95 461,96 461,97 462,98 462,100 463,101 463,103 464,104 464,107 465,108 465,114 466,115 466,133 465,134 465,138 464,139 464,142 463,143 463,145 462,146 462,148 461,149 461,150 460,151 460,153 459,154 459,155 457,157 457,158 455,160 455,161 453,163 452,163 448,167 447,167 446,168 445,168 444,169 441,169 440,170 436,170 435,169 432,169 431,168 430,168 427,165 426,165 422,161 422,160 419,157 419,156 417,154 417,153 416,152 416,150 415,149 415,147 414,146 414,144 413,143 413,140 412,139 412,136 411,135 411,134 412,133 413,134 417,134 418,133 419,134 423,134 424,133 425,133 426,134 435,134 436,133 439,133 440,132 441,132 441,131 442,130 442,128 443,127 443,118 442,117 442,116 439,113 437,113 436,112 435,112 434,113 430,113 429,112 426,112 425,113 413,113 412,112 412,106 413,105 413,103 414,102 414,100 415,99 415,98 416,97 416,95 417,94 417,93 418,92 418,91 419,90 419,89 422,86 422,85 425,82 426,82 429,79 430,79 431,78 432,78 433,77 Z" fill="white" stroke="black" stroke-width="2" /><path d="M 303,77 304,76 307,76 308,77 313,77 314,76 315,76 316,77 320,77 321,76 323,76 324,77 332,77 333,78 335,78 337,80 338,80 341,83 341,84 345,88 345,89 347,91 347,92 348,93 348,95 349,96 349,97 350,98 350,99 351,100 351,102 352,103 352,106 353,107 353,110 354,111 354,136 353,137 353,140 352,141 352,144 351,145 351,147 350,148 350,149 349,150 349,151 348,152 348,154 347,155 347,156 345,158 345,159 338,166 337,166 335,168 333,168 332,169 329,169 328,170 321,170 320,169 325,164 325,163 327,161 327,160 329,158 329,156 330,155 330,154 331,153 331,152 332,151 332,150 333,149 333,147 334,146 334,144 335,143 335,139 336,138 336,132 337,131 337,113 336,112 336,108 335,107 335,104 334,103 334,100 333,99 333,97 332,96 332,94 331,93 331,92 329,90 329,89 328,88 328,87 327,87 326,86 324,88 324,89 325,90 325,92 326,93 326,94 328,96 328,98 329,99 329,101 330,102 330,105 331,106 331,109 332,110 332,113 333,114 333,116 332,117 333,118 333,128 332,129 332,137 331,138 331,141 330,142 330,145 329,146 329,147 328,148 328,149 327,150 327,152 326,153 326,154 325,155 325,156 323,158 323,159 320,162 320,163 318,165 317,165 315,167 314,167 313,168 312,168 311,169 309,169 308,170 303,170 302,169 299,169 298,168 296,168 291,163 290,163 289,162 289,161 287,159 287,158 285,156 285,155 284,154 284,153 283,152 283,151 282,150 282,149 281,148 281,146 280,145 280,142 279,141 279,137 278,136 278,127 277,126 277,121 278,120 277,119 277,117 278,116 278,110 279,109 279,106 280,105 280,101 281,100 281,99 282,98 282,97 283,96 283,95 284,94 284,93 285,92 285,90 287,88 287,87 294,80 295,80 296,79 297,79 298,78 300,78 301,77 Z" fill="white" stroke="black" stroke-width="2" /><path d="M 286,113 284,115 284,116 283,117 283,118 282,119 282,128 283,129 283,130 286,133 288,133 289,134 303,134 307,130 307,129 308,128 308,126 309,125 308,124 308,119 307,118 307,117 306,116 306,115 304,113 Z" fill="white" stroke="black" stroke-width="2" /><path d="M 297,118 298,117 301,117 304,120 304,127 302,129 301,129 300,130 299,130 298,129 297,129 296,128 297,127 Z" fill="white" stroke="black" stroke-width="2" /><path d="M 289,117 290,117 293,120 293,126 290,129 288,129 287,128 287,127 286,126 286,121 287,120 287,119 Z" fill="white" stroke="black" stroke-width="2" /><path d="M 288,77 289,76 290,77 289,78 Z" fill="white" stroke="black" stroke-width="2" /><path d="M 287,76 288,75 289,76 288,77 Z" fill="white" stroke="black" stroke-width="2" /><path d="M 473,75 474,74 475,75 474,76 Z" fill="white" stroke="black" stroke-width="2" /><path d="M 341,75 342,74 343,75 342,76 Z" fill="white" stroke="black" stroke-width="2" /><path d="M 471,74 472,73 473,74 472,75 Z" fill="white" stroke="black" stroke-width="2" /><path d="M 291,74 292,73 293,74 292,75 Z" fill="white" stroke="black" stroke-width="2" /><path d="M 428,73 429,72 430,73 429,74 Z" fill="white" stroke="black" stroke-width="2" /><path d="M 340,73 341,72 342,72 343,73 342,74 341,74 Z" fill="white" stroke="black" stroke-width="2" /><path d="M 288,73 289,72 290,73 289,74 Z" fill="white" stroke="black" stroke-width="2" /><path d="M 337,72 338,71 339,72 338,73 Z" fill="white" stroke="black" stroke-width="2" /></svg>